<svg width="18" height="18" viewBox="0 0 18 18" fill="none" xmlns="http://www.w3.org/2000/svg">
<path d="M8.65628 11.7357C8.69451 11.7912 8.74565 11.8366 8.80532 11.868C8.86498 11.8994 8.93138 11.9157 8.99878 11.9157C9.06619 11.9157 9.13258 11.8994 9.19224 11.868C9.25191 11.8366 9.30306 11.7912 9.34128 11.7357L13.0913 6.31907C13.1347 6.25659 13.1601 6.18341 13.1649 6.10748C13.1696 6.03156 13.1535 5.95578 13.1182 5.8884C13.0828 5.82101 13.0298 5.76459 12.9646 5.72526C12.8995 5.68593 12.8249 5.6652 12.7488 5.66532L5.24878 5.66531C5.17288 5.66563 5.09851 5.68663 5.03365 5.72605C4.96879 5.76547 4.91591 5.82183 4.88069 5.88906C4.84546 5.95629 4.82924 6.03185 4.83375 6.10762C4.83826 6.18338 4.86333 6.25649 4.90628 6.31906L8.65628 11.7357Z" fill="#263856"/>
</svg>
