<svg width="12" height="14" viewBox="0 0 12 14" fill="none" xmlns="http://www.w3.org/2000/svg">
<path d="M5.8846 14C4.91302 13.1622 4.01245 12.2437 3.1923 11.2542C1.96154 9.76816 0.500001 7.55504 0.500001 5.44611C0.499467 4.36907 0.815006 3.31607 1.40669 2.42039C1.99836 1.5247 2.83959 0.826592 3.82389 0.414403C4.80819 0.00221368 5.89133 -0.105524 6.93623 0.104825C7.98112 0.315174 8.94081 0.834154 9.69382 1.59609C10.1952 2.10065 10.5926 2.70073 10.863 3.36159C11.1334 4.02244 11.2715 4.73095 11.2692 5.44611C11.2692 7.55504 9.80767 9.76816 8.5769 11.2542C7.75675 12.2437 6.85618 13.1622 5.8846 14ZM5.8846 3.11323C5.27257 3.11323 4.6856 3.35902 4.25282 3.79652C3.82005 4.23402 3.57692 4.82739 3.57692 5.44611C3.57692 6.06483 3.82005 6.65821 4.25282 7.09571C4.6856 7.53321 5.27257 7.77899 5.8846 7.77899C6.49664 7.77899 7.08361 7.53321 7.51638 7.09571C7.94916 6.65821 8.19229 6.06483 8.19229 5.44611C8.19229 4.82739 7.94916 4.23402 7.51638 3.79652C7.08361 3.35902 6.49664 3.11323 5.8846 3.11323Z" fill="#C9D6E4"/>
</svg>
