<svg width="40" height="40" viewBox="0 0 40 40" fill="none" xmlns="http://www.w3.org/2000/svg">
<path d="M9.99967 33.4786H14.3502C14.9174 33.4786 15.4811 33.5461 16.031 33.6811L20.6278 34.7981C21.6252 35.0411 22.6643 35.0647 23.6721 34.869L28.7546 33.8802C30.0972 33.6186 31.3323 32.9757 32.3002 32.0342L35.8962 28.5362C36.9231 27.5389 36.9231 25.9207 35.8962 24.9218C34.9716 24.0224 33.5076 23.9211 32.4616 24.6838L28.2707 27.7414C27.6705 28.1801 26.9402 28.4164 26.1891 28.4164H22.1422L24.7181 28.4163C26.17 28.4163 27.3461 27.2722 27.3461 25.8598V25.3486C27.3461 24.1758 26.5256 23.1533 25.3565 22.8698L21.3807 21.9029C20.7336 21.746 20.071 21.6667 19.4049 21.6667C17.7969 21.6667 14.8862 22.998 14.8862 22.998L9.99967 25.0415M3.33301 24.3333L3.33301 34C3.33301 34.9334 3.33301 35.4001 3.51466 35.7566C3.67445 36.0702 3.92942 36.3252 4.24302 36.485C4.59954 36.6667 5.06625 36.6667 5.99967 36.6667H7.33301C8.26643 36.6667 8.73314 36.6667 9.08966 36.485C9.40326 36.3252 9.65823 36.0702 9.81802 35.7566C9.99967 35.4001 9.99967 34.9334 9.99967 34V24.3333C9.99967 23.3999 9.99967 22.9332 9.81802 22.5767C9.65823 22.2631 9.40326 22.0081 9.08966 21.8483C8.73314 21.6667 8.26643 21.6667 7.33301 21.6667H5.99968C5.06625 21.6667 4.59954 21.6667 4.24302 21.8483C3.92942 22.0081 3.67445 22.2631 3.51466 22.5767C3.33301 22.9332 3.33301 23.3999 3.33301 24.3333ZM28.652 5.98708C27.6573 3.90565 25.364 2.80296 23.1337 3.86728C20.9035 4.93159 19.9533 7.45562 20.8871 9.67137C21.4642 11.0408 23.1176 13.7 24.2965 15.5317C24.7321 16.2085 24.9499 16.5469 25.268 16.7449C25.5409 16.9147 25.8824 17.0062 26.2037 16.9956C26.5781 16.9832 26.936 16.799 27.6516 16.4307C29.5884 15.4338 32.3499 13.9576 33.5344 13.0602C35.4509 11.6082 35.9256 8.93928 34.4908 6.91039C33.0559 4.8815 30.5541 4.68186 28.652 5.98708Z" stroke="#101828" stroke-width="2" stroke-linecap="round" stroke-linejoin="round"/>
</svg>
