<svg width="100" height="96" viewBox="0 0 100 96" fill="none" xmlns="http://www.w3.org/2000/svg">
<path d="M12.8999 55.9606C23.1296 47.1951 47.3765 62.0905 55.6846 53.7825C63.9926 45.4744 51.2097 23.5885 59.4439 12.3385" stroke="#8FB4DF" stroke-width="2" stroke-linecap="round" stroke-linejoin="round"/>
<path d="M76.9712 29.8955C67.0617 38.446 43.3407 24.8722 35.0326 33.1803C26.7246 41.4883 38.2658 62.2352 30.4698 73.5325" stroke="#8FB4DF" stroke-width="2" stroke-linecap="round" stroke-linejoin="round"/>
<path d="M60.5508 20.5815L67.8772 27.8871" stroke="#8FB4DF" stroke-width="2" stroke-linecap="round"/>
<path d="M20.4609 57.9917L27.7873 65.2973" stroke="#8FB4DF" stroke-width="2" stroke-linecap="round"/>
<path d="M46.8027 34.371L54.1291 41.6765" stroke="#8FB4DF" stroke-width="2" stroke-linecap="round"/>
<path d="M36.1729 44.1635L43.4993 51.469" stroke="#8FB4DF" stroke-width="2" stroke-linecap="round"/>
<path d="M39.3838 37.3994L50.4883 48.4723" stroke="#8FB4DF" stroke-width="2" stroke-linecap="round"/>
<path d="M66.0881 70.6951L72.0639 76.7442M72.0639 76.7442L78.0397 70.6951M72.0639 76.7442V56.5807M62.1042 63.8202C60.2477 63.8202 59.3195 63.8202 58.5885 64.1267C58.1048 64.3293 57.6653 64.6265 57.2951 65.0012C56.925 65.3759 56.6314 65.8208 56.4312 66.3104C56.1284 67.0504 56.1284 67.99 56.1284 69.8692V79.5477C56.1284 81.806 56.1284 82.9352 56.5627 83.7982C56.9446 84.5569 57.554 85.1738 58.3036 85.5604C59.1542 86 60.2697 86 62.4966 86H81.6332C83.8601 86 84.9736 86 85.8242 85.5604C86.5732 85.1733 87.1827 84.5563 87.5651 83.7982C87.9994 82.9352 87.9994 81.808 87.9994 79.5537V69.8692C87.9994 67.99 87.9994 67.0504 87.6966 66.3104C87.4964 65.8208 87.2028 65.3759 86.8327 65.0012C86.4625 64.6265 86.023 64.3293 85.5393 64.1267C84.8083 63.8202 83.8801 63.8202 82.0236 63.8202" stroke="#8FB4DF" stroke-width="2" stroke-linecap="round" stroke-linejoin="round"/>
</svg>
