<svg width="48" height="48" viewBox="0 0 48 48" fill="none" xmlns="http://www.w3.org/2000/svg">
<path d="M27.146 42.5401H11C8.79086 42.5401 7 40.7493 7 38.5401V10.0438C7 7.83466 8.79086 6.0438 11 6.0438H14.8832M14.8832 6.0438V6.08759C14.8832 7.19216 15.7786 8.08759 16.8832 8.08759H26.3139C27.4184 8.08759 28.3139 7.19216 28.3139 6.08759V6.0438M14.8832 6.0438V6C14.8832 4.89543 15.7786 4 16.8832 4H26.3139C27.4184 4 28.3139 4.89543 28.3139 6V6.0438M28.3139 6.0438H31.6131C33.8223 6.0438 35.6131 7.83466 35.6131 10.0438V25.6058M13.7153 15.0949H29.7737M13.4234 23.854H29.7737M13.4234 19.4745H29.7737" stroke="#8FB4DF" stroke-width="2" stroke-linecap="round" stroke-linejoin="round"/>
<circle cx="35.9052" cy="35.8248" r="8.17518" stroke="#8FB4DF" stroke-width="2" stroke-linecap="round" stroke-linejoin="round"/>
<path d="M32.4016 35.5329L34.7374 38.1606L39.7009 33.4891" stroke="#8FB4DF" stroke-width="2" stroke-linecap="round" stroke-linejoin="round"/>
</svg>
