<svg width="100" height="96" viewBox="0 0 100 96" fill="none" xmlns="http://www.w3.org/2000/svg">
<path d="M82.0393 42.2353V84H18.0001V42.2353" stroke="#8FB4DF" stroke-width="2" stroke-linecap="round" stroke-linejoin="round"/>
<path d="M18.0001 42.2353L24.9609 36.4851M82.0393 42.2353L75.0785 36.4851" stroke="#8FB4DF" stroke-width="2" stroke-linecap="round" stroke-linejoin="round"/>
<path d="M32.6177 24.1373H53.5" stroke="#8FB4DF" stroke-width="2" stroke-linecap="round"/>
<path d="M32.6177 40.8432H67.4216" stroke="#8FB4DF" stroke-width="2" stroke-linecap="round"/>
<path d="M32.6177 32.4902H67.4216" stroke="#8FB4DF" stroke-width="2" stroke-linecap="round"/>
<path d="M32.6177 49.1962H67.4216" stroke="#8FB4DF" stroke-width="2" stroke-linecap="round"/>
<path d="M37.4902 57.5491H62.5491" stroke="#8FB4DF" stroke-width="2" stroke-linecap="round"/>
<path d="M75.0783 47.8039V17C75.0783 14.7909 73.2875 13 71.0783 13H28.9607C26.7516 13 24.9607 14.7909 24.9607 17V47.8039" stroke="#8FB4DF" stroke-width="2" stroke-linecap="round"/>
<path d="M56.7576 63.1177L82.0392 84H18L43.2816 63.1177" stroke="#8FB4DF" stroke-width="2" stroke-linecap="round" stroke-linejoin="round"/>
<path d="M18.0001 42.2353L43.2817 63.1177L56.7577 63.1177L82.0393 42.2353" stroke="#8FB4DF" stroke-width="2" stroke-linecap="round" stroke-linejoin="round"/>
</svg>
