<svg width="48" height="48" viewBox="0 0 48 48" fill="none" xmlns="http://www.w3.org/2000/svg">
<path d="M42.0784 20.4706V44H5.99994V20.4706" stroke="#8FB4DF" stroke-width="2" stroke-linecap="round" stroke-linejoin="round"/>
<path d="M5.99994 20.4706L9.92151 17.2311M42.0784 20.4706L38.1568 17.2311" stroke="#8FB4DF" stroke-width="2" stroke-linecap="round" stroke-linejoin="round"/>
<path d="M14.2354 10.2745H26.0001" stroke="#8FB4DF" stroke-width="2" stroke-linecap="round"/>
<path d="M14.2354 19.6862H33.8432" stroke="#8FB4DF" stroke-width="2" stroke-linecap="round"/>
<path d="M14.2354 14.9803H33.8432" stroke="#8FB4DF" stroke-width="2" stroke-linecap="round"/>
<path d="M14.2354 24.3921H33.8432" stroke="#8FB4DF" stroke-width="2" stroke-linecap="round"/>
<path d="M16.9805 29.098H31.0981" stroke="#8FB4DF" stroke-width="2" stroke-linecap="round"/>
<path d="M38.1569 23.6078V8C38.1569 5.79086 36.3661 4 34.1569 4H13.9216C11.7125 4 9.92163 5.79086 9.92163 8V23.6078" stroke="#8FB4DF" stroke-width="2" stroke-linecap="round"/>
<path d="M27.8353 32.2353L42.0784 44H6L20.2431 32.2353" stroke="#8FB4DF" stroke-width="2" stroke-linecap="round" stroke-linejoin="round"/>
<path d="M5.99994 20.4706L20.2431 32.2353L27.8352 32.2353L42.0784 20.4706" stroke="#8FB4DF" stroke-width="2" stroke-linecap="round" stroke-linejoin="round"/>
</svg>
