<svg width="68" height="104" viewBox="0 0 68 104" fill="none" xmlns="http://www.w3.org/2000/svg">
<g filter="url(#filter0_dd_8488_2887)">
<path d="M44.625 14.3571C44.0219 11.5762 38.6442 8.86222 33.5179 8.86222C28.2408 8.86222 22.8966 11.6097 22.327 14.3571C21.8914 10.5543 22.2935 6.81838 23.483 4.70753C23.483 4.70753 23.483 4.70753 23.483 4.69078C23.483 4.67403 23.4997 4.67403 23.4997 4.65727C23.6337 4.43949 23.751 4.2217 23.885 4.00392C25.5938 1.47425 28.6596 0 33.5011 0C38.3092 0 41.3582 1.47425 43.0335 4.00392C43.1675 4.20495 43.3015 4.42273 43.4188 4.65727C44.7757 7.03617 44.826 11.4254 44.625 14.3571Z" fill="url(#paint0_linear_8488_2887)"/>
<path d="M22.2446 11.7939C22.2446 9.01299 22.4624 6.61734 23.501 4.70752C17.0177 15.6638 17.4868 23.8224 17.5036 24.0402C17.5036 24.258 17.5203 24.4423 17.5203 24.6266C17.5203 39.369 50.4228 87.4663 50.4228 87.4663L59.0002 77.6324C59.0002 77.6324 22.2446 25.749 22.2446 11.7939Z" fill="url(#paint1_linear_8488_2887)"/>
<path d="M43.453 4.65723C50.5394 21.1085 8.30566 77.4983 8.30566 77.4983L17.2684 87.4662C17.2684 87.4662 49.5343 40.4077 49.5343 24.6265C49.5343 24.4423 49.551 24.2245 49.551 23.9899C49.551 23.9899 50.0536 15.7811 43.453 4.65723Z" fill="url(#paint2_linear_8488_2887)"/>
<g style="mix-blend-mode:multiply" opacity="0.4">
<path d="M27.1349 49.4874L33.7187 38.5479L27.8888 27.6753L21.1709 37.1741C21.1709 37.1741 24.8565 45.1149 27.1349 49.4874Z" fill="url(#paint3_linear_8488_2887)"/>
</g>
<g style="mix-blend-mode:multiply" opacity="0.4">
<path d="M33.7197 61.4496L40.2868 49.6724L46.7031 59.9418L40.3706 72.5734L33.7197 61.4496Z" fill="url(#paint4_linear_8488_2887)"/>
</g>
<path d="M26.2813 50.9628C26.2813 50.9628 26.7001 50.2927 27.4204 49.1367C27.789 48.5504 28.2246 47.8467 28.7104 47.0259C28.9617 46.6238 29.213 46.1882 29.4978 45.7191C29.7658 45.2501 30.0674 44.7642 30.3689 44.2617C30.972 43.2397 31.6086 42.1508 32.262 40.9614C32.5971 40.375 32.9321 39.7719 33.2672 39.1521C33.619 38.5322 33.954 37.8956 34.3058 37.2422C34.6576 36.5889 34.9927 35.9355 35.3445 35.2654C35.6796 34.5953 36.0481 33.9084 36.3832 33.2216C37.07 31.8311 37.7569 30.4239 38.3935 28.9999C39.0469 27.5759 39.6835 26.1351 40.2531 24.7112C40.5546 23.9908 40.8227 23.2872 41.0907 22.5668C41.2247 22.215 41.342 21.8632 41.476 21.5114C41.543 21.3438 41.61 21.1596 41.6603 20.992C41.7273 20.8245 41.7776 20.6402 41.8446 20.4727C42.3304 19.0822 42.7325 17.7252 43.0675 16.4185C43.1513 16.0835 43.2351 15.7652 43.3021 15.4469C43.3858 15.1286 43.4361 14.8103 43.5031 14.5087C43.6371 13.8889 43.7376 13.2858 43.8382 12.6994C43.8884 12.4146 43.9219 12.1298 43.9554 11.845C43.9889 11.5602 44.0224 11.2922 44.0392 11.0241C44.056 10.7561 44.0895 10.5048 44.1062 10.2367C44.123 9.98546 44.123 9.73417 44.123 9.49963C44.1565 8.54472 44.0895 7.70708 43.9889 7.03697C43.9722 6.86944 43.9387 6.70191 43.9052 6.55114C43.8717 6.40036 43.8549 6.26634 43.8214 6.13232C43.7712 5.86427 43.7041 5.64649 43.6539 5.47896C43.7041 5.64649 43.7879 5.86427 43.8382 6.13232C43.8717 6.26634 43.8884 6.40036 43.9219 6.55114C43.9554 6.70191 43.9889 6.85269 44.0057 7.03697C44.1062 7.72383 44.19 8.54472 44.1732 9.51638C44.19 10.4713 44.0727 11.5602 43.9052 12.7162C43.8047 13.3025 43.7209 13.9056 43.5869 14.5255C43.5199 14.8438 43.4696 15.1621 43.3858 15.4804C43.3021 15.7987 43.2351 16.117 43.1513 16.452C42.8163 17.7587 42.4142 19.1325 41.9451 20.523C41.8948 20.6905 41.8278 20.8748 41.7776 21.0423C41.7106 21.2098 41.6603 21.3941 41.5933 21.5616C41.4593 21.9134 41.342 22.2652 41.208 22.6171C40.9399 23.3207 40.6719 24.041 40.3703 24.7614C39.8007 26.2022 39.1641 27.6429 38.5275 29.0669C37.8742 30.4909 37.1873 31.9148 36.4837 33.2886C36.1319 33.9754 35.7801 34.6623 35.4283 35.3324C35.0765 36.0025 34.7247 36.6726 34.3728 37.3092C34.021 37.9626 33.6692 38.5992 33.3342 39.2191C32.9991 39.8389 32.6473 40.442 32.3123 41.0284C31.6421 42.2011 31.0055 43.3067 30.4024 44.3119C29.7993 45.3338 29.2297 46.2385 28.7272 47.0594C28.2246 47.8803 27.7722 48.5839 27.4037 49.1535C26.7001 50.2927 26.2813 50.9628 26.2813 50.9628Z" fill="#88C7FF"/>
<path d="M26.5965 1.5249C26.5965 1.5249 26.3284 1.67568 25.9264 1.99398C25.5075 2.31228 24.9547 2.83162 24.4019 3.53524C24.1171 3.88705 23.849 4.28911 23.5977 4.74144C23.3464 5.19376 23.1286 5.69635 22.9444 6.21568C22.5926 7.27111 22.3748 8.46056 22.3078 9.66676C22.224 10.8562 22.291 12.0624 22.425 13.1848C22.492 13.7377 22.5926 14.2738 22.6931 14.7764C22.7936 15.2789 22.9109 15.748 23.0281 16.1836C23.1454 16.6192 23.2627 17.0212 23.3799 17.3563C23.4972 17.7081 23.5977 18.0096 23.6815 18.2609C23.7653 18.5122 23.849 18.6965 23.8993 18.8305C23.849 18.6965 23.7652 18.5122 23.6647 18.2609C23.5642 18.0096 23.4469 17.7248 23.3297 17.373C23.2124 17.0212 23.0784 16.6359 22.9444 16.2003C22.8271 15.7648 22.6931 15.2957 22.5758 14.7931C22.4585 14.2905 22.358 13.7544 22.291 13.1848C22.1402 12.0624 22.0732 10.8562 22.1402 9.65C22.224 8.4438 22.4418 7.2376 22.8103 6.16542C23.1789 5.09325 23.7485 4.17184 24.3181 3.46823C24.8877 2.76461 25.474 2.27878 25.8929 1.96048C26.3284 1.65893 26.5965 1.5249 26.5965 1.5249Z" fill="#88C7FF"/>
</g>
<defs>
<filter id="filter0_dd_8488_2887" x="0.169248" y="-4.76837e-07" width="66.9672" height="103.739" filterUnits="userSpaceOnUse" color-interpolation-filters="sRGB">
<feFlood flood-opacity="0" result="BackgroundImageFix"/>
<feColorMatrix in="SourceAlpha" type="matrix" values="0 0 0 0 0 0 0 0 0 0 0 0 0 0 0 0 0 0 127 0" result="hardAlpha"/>
<feMorphology radius="1.35607" operator="erode" in="SourceAlpha" result="effect1_dropShadow_8488_2887"/>
<feOffset dy="2.71214"/>
<feGaussianBlur stdDeviation="2.0341"/>
<feColorMatrix type="matrix" values="0 0 0 0 0.0627451 0 0 0 0 0.0941176 0 0 0 0 0.156863 0 0 0 0.03 0"/>
<feBlend mode="normal" in2="BackgroundImageFix" result="effect1_dropShadow_8488_2887"/>
<feColorMatrix in="SourceAlpha" type="matrix" values="0 0 0 0 0 0 0 0 0 0 0 0 0 0 0 0 0 0 127 0" result="hardAlpha"/>
<feMorphology radius="2.71214" operator="erode" in="SourceAlpha" result="effect2_dropShadow_8488_2887"/>
<feOffset dy="8.13642"/>
<feGaussianBlur stdDeviation="5.42428"/>
<feColorMatrix type="matrix" values="0 0 0 0 0.0627451 0 0 0 0 0.0941176 0 0 0 0 0.156863 0 0 0 0.08 0"/>
<feBlend mode="normal" in2="effect1_dropShadow_8488_2887" result="effect2_dropShadow_8488_2887"/>
<feBlend mode="normal" in="SourceGraphic" in2="effect2_dropShadow_8488_2887" result="shape"/>
</filter>
<linearGradient id="paint0_linear_8488_2887" x1="22.1733" y1="7.17815" x2="44.7189" y2="7.17815" gradientUnits="userSpaceOnUse">
<stop stop-color="#098DF3"/>
<stop offset="0.124" stop-color="#1994F5"/>
<stop offset="0.3647" stop-color="#42A6FB"/>
<stop offset="0.5153" stop-color="#5FB2FF"/>
<stop offset="1" stop-color="#1B86F3"/>
</linearGradient>
<linearGradient id="paint1_linear_8488_2887" x1="51.4225" y1="58.401" x2="11.8784" y2="24.7021" gradientUnits="userSpaceOnUse">
<stop stop-color="#0AA1FE"/>
<stop offset="0.153" stop-color="#0FA2FE"/>
<stop offset="0.347" stop-color="#1FA6FE"/>
<stop offset="0.5631" stop-color="#39ADFE"/>
<stop offset="0.7937" stop-color="#5DB5FF"/>
<stop offset="0.8776" stop-color="#6CB9FF"/>
<stop offset="1" stop-color="#1C8CFE"/>
</linearGradient>
<linearGradient id="paint2_linear_8488_2887" x1="2.18619" y1="60.4301" x2="58.2814" y2="31.8208" gradientUnits="userSpaceOnUse">
<stop stop-color="#0A94FE"/>
<stop offset="0.1782" stop-color="#0F96FE"/>
<stop offset="0.3776" stop-color="#1C9AFE"/>
<stop offset="0.5865" stop-color="#32A1FF"/>
<stop offset="0.7551" stop-color="#4AA9FF"/>
<stop offset="0.8776" stop-color="#80C2FF"/>
<stop offset="1" stop-color="#1C8CFE"/>
</linearGradient>
<linearGradient id="paint3_linear_8488_2887" x1="23.9672" y1="33.4258" x2="32.7391" y2="46.1726" gradientUnits="userSpaceOnUse">
<stop stop-color="white"/>
<stop offset="1" stop-color="#797B7C"/>
</linearGradient>
<linearGradient id="paint4_linear_8488_2887" x1="42.7512" y1="63.2278" x2="32.0455" y2="53.9003" gradientUnits="userSpaceOnUse">
<stop stop-color="white"/>
<stop offset="1" stop-color="#A8AAAC"/>
</linearGradient>
</defs>
</svg>
