<svg width="129" height="48" viewBox="0 0 129 48" fill="none" xmlns="http://www.w3.org/2000/svg">
<path d="M94.7187 19.5024V16.1457H99.6844C100.942 16.1457 102.042 15.8868 102.986 15.3689C103.929 14.8326 104.659 14.0836 105.177 13.1218C105.714 12.1601 105.982 11.0227 105.982 9.70961C105.982 8.43349 105.714 7.32382 105.177 6.3806C104.641 5.41888 103.901 4.6791 102.958 4.16126C102.015 3.62492 100.924 3.35675 99.6844 3.35675H94.6354V0H99.7399C101.182 0 102.514 0.240428 103.735 0.721284C104.974 1.20214 106.047 1.88644 106.953 2.77417C107.877 3.64341 108.59 4.66986 109.089 5.8535C109.607 7.03715 109.866 8.33177 109.866 9.73735C109.866 11.1429 109.607 12.4468 109.089 13.6489C108.59 14.8326 107.887 15.8683 106.98 16.756C106.074 17.6252 105.002 18.3003 103.762 18.7811C102.542 19.262 101.219 19.5024 99.7954 19.5024H94.7187ZM92.1387 19.5024V0H95.9115V19.5024H92.1387Z" fill="#1570EF"/>
<path d="M84.4211 19.5024V0H88.1385V19.5024H84.4211ZM80.5928 3.27352V0H87.8611V3.27352H80.5928Z" fill="#1570EF"/>
<path d="M67.1761 19.5024V0.416125H70.9767V19.5024H67.1761ZM60.9619 3.35675V0H77.1908V3.35675H60.9619Z" fill="#1570EF"/>
<path d="M122.382 47.7229V28.9043H125.426V47.7229H122.382ZM119.199 37.2066V34.4392H128.609V37.2066H119.199Z" fill="#101828"/>
<path d="M111.517 47.9999C110.392 47.9999 109.386 47.7508 108.501 47.2527C107.634 46.7546 106.951 46.0719 106.453 45.2048C105.973 44.3192 105.733 43.3045 105.733 42.1606V34.4395H108.778V42.0222C108.778 42.668 108.879 43.2215 109.082 43.6827C109.303 44.1255 109.617 44.4668 110.023 44.7066C110.447 44.9465 110.945 45.0664 111.517 45.0664C112.403 45.0664 113.076 44.8081 113.538 44.2915C114.017 43.7565 114.257 43.0001 114.257 42.0222V34.4395H117.301V42.1606C117.301 43.3229 117.052 44.3469 116.554 45.2325C116.074 46.0996 115.401 46.7822 114.534 47.2804C113.667 47.7601 112.661 47.9999 111.517 47.9999Z" fill="#101828"/>
<path d="M96.5595 47.9993C95.2681 47.9993 94.0965 47.6949 93.0449 47.086C91.9933 46.4588 91.1538 45.6193 90.5265 44.5677C89.9177 43.516 89.6133 42.3445 89.6133 41.053C89.6133 39.7616 89.9177 38.5992 90.5265 37.5661C91.1538 36.5329 91.9933 35.7119 93.0449 35.103C94.0965 34.4758 95.2681 34.1621 96.5595 34.1621C97.8695 34.1621 99.0502 34.4665 100.102 35.0754C101.153 35.6842 101.984 36.5144 102.593 37.5661C103.22 38.5992 103.533 39.7616 103.533 41.053C103.533 42.3445 103.22 43.516 102.593 44.5677C101.984 45.6193 101.153 46.4588 100.102 47.086C99.0502 47.6949 97.8695 47.9993 96.5595 47.9993ZM96.5595 45.0658C97.316 45.0658 97.9802 44.8998 98.5521 44.5677C99.1425 44.2171 99.5945 43.7374 99.9081 43.1286C100.24 42.5198 100.406 41.8279 100.406 41.053C100.406 40.2781 100.24 39.5955 99.9081 39.0051C99.5761 38.4147 99.124 37.9535 98.5521 37.6214C97.9802 37.2709 97.316 37.0956 96.5595 37.0956C95.8216 37.0956 95.1574 37.2709 94.567 37.6214C93.9951 37.9535 93.543 38.4147 93.211 39.0051C92.8973 39.5955 92.7405 40.2781 92.7405 41.053C92.7405 41.8279 92.8973 42.5198 93.211 43.1286C93.543 43.7374 93.9951 44.2171 94.567 44.5677C95.1574 44.8998 95.8216 45.0658 96.5595 45.0658Z" fill="#101828"/>
<path d="M83.3714 47.9993C82.0615 47.9993 80.8715 47.6949 79.8014 47.086C78.7498 46.4772 77.9196 45.647 77.3107 44.5953C76.7019 43.5437 76.3975 42.3722 76.3975 41.0807C76.3975 39.7708 76.7019 38.5992 77.3107 37.5661C77.9196 36.5144 78.7498 35.6842 79.8014 35.0754C80.8715 34.4665 82.0615 34.1621 83.3714 34.1621C84.4046 34.1621 85.364 34.3651 86.2495 34.7709C87.1536 35.1584 87.9192 35.7211 88.5465 36.4591L86.554 38.4793C86.1665 38.0181 85.6961 37.6768 85.1426 37.4554C84.6075 37.2155 84.0171 37.0956 83.3714 37.0956C82.615 37.0956 81.9416 37.2709 81.3512 37.6214C80.7792 37.9535 80.3272 38.4147 79.9951 39.0051C79.6815 39.5955 79.5247 40.2874 79.5247 41.0807C79.5247 41.8556 79.6815 42.5474 79.9951 43.1563C80.3272 43.7467 80.7792 44.2171 81.3512 44.5677C81.9416 44.8998 82.615 45.0658 83.3714 45.0658C84.0171 45.0658 84.6075 44.9551 85.1426 44.7337C85.6961 44.4939 86.1665 44.1433 86.554 43.6821L88.5465 45.7023C87.9192 46.4403 87.1536 47.0122 86.2495 47.4181C85.364 47.8056 84.4046 47.9993 83.3714 47.9993Z" fill="#101828"/>
<path d="M67.8515 47.9998C66.3202 47.9998 65.0195 47.723 63.9494 47.1695C62.8793 46.616 61.92 45.8043 61.0713 44.7342L63.2299 42.5756C63.7649 43.3505 64.4014 43.9593 65.1394 44.4021C65.8774 44.8264 66.8183 45.0386 67.9622 45.0386C69.0323 45.0386 69.881 44.8172 70.5083 44.3744C71.154 43.9316 71.4769 43.3228 71.4769 42.5479C71.4769 41.9022 71.3108 41.3764 70.9787 40.9705C70.6466 40.5646 70.2038 40.2325 69.6503 39.9742C69.1153 39.6975 68.5157 39.4576 67.8515 39.2547C67.2058 39.0333 66.5508 38.7934 65.8866 38.5351C65.2409 38.2584 64.6413 37.9171 64.0878 37.5112C63.5528 37.1053 63.1192 36.5795 62.7871 35.9337C62.455 35.288 62.289 34.467 62.289 33.4707C62.289 32.3268 62.5657 31.3582 63.1192 30.5649C63.6911 29.7531 64.4568 29.1351 65.4162 28.7107C66.3755 28.2864 67.4456 28.0742 68.6264 28.0742C69.8994 28.0742 71.0341 28.3233 72.0303 28.8214C73.0451 29.3196 73.8661 29.9561 74.4934 30.731L72.3348 32.8896C71.7813 32.2623 71.2001 31.801 70.5913 31.5058C70.0009 31.1922 69.3183 31.0354 68.5434 31.0354C67.584 31.0354 66.8276 31.2291 66.2741 31.6165C65.739 32.004 65.4715 32.5482 65.4715 33.2493C65.4715 33.8397 65.6376 34.3194 65.9697 34.6884C66.3017 35.0389 66.7353 35.3434 67.2703 35.6016C67.8238 35.8415 68.4234 36.0721 69.0692 36.2935C69.7334 36.5149 70.3883 36.764 71.0341 37.0407C71.6982 37.3175 72.2979 37.6772 72.8329 38.12C73.3864 38.5444 73.8292 39.0978 74.1613 39.7805C74.4934 40.4631 74.6594 41.321 74.6594 42.3542C74.6594 44.0885 74.0413 45.4629 72.8052 46.4777C71.5876 47.4924 69.9363 47.9998 67.8515 47.9998Z" fill="#101828"/>
<path d="M47.1313 44.3705C47.5835 43.9214 47.8377 43.3105 47.8377 42.6732V31.2811C47.8377 30.3556 47.5874 29.435 47.0019 28.7183C44.6168 25.7989 40.9882 23.9351 36.9243 23.9351C29.7411 23.9351 23.918 29.7582 23.918 36.9414C23.918 41.0053 25.7818 44.6339 28.7012 47.019C29.4179 47.6045 30.3385 47.8548 31.264 47.8548H42.6326C43.2641 47.8548 43.87 47.6051 44.3181 47.1601L47.1313 44.3705Z" fill="#1570EF"/>
<path d="M0.706457 44.3705C0.254289 43.9214 0 43.3105 0 42.6732V31.2811C0 30.3556 0.250349 29.435 0.835853 28.7183C3.22094 25.7989 6.84951 23.9351 10.9134 23.9351C18.0966 23.9351 23.9198 29.7582 23.9198 36.9414C23.9198 41.0053 22.056 44.6339 19.1365 47.019C18.4198 47.6045 17.4992 47.8548 16.5738 47.8548H5.20513C4.5736 47.8548 3.9677 47.6051 3.51961 47.1601L0.706457 44.3705Z" fill="#FECC01"/>
<path d="M0.706458 3.49951C0.25429 3.94856 9.99367e-07 4.55948 9.43656e-07 5.19674L0 16.5889C-8.09052e-08 17.5143 0.250349 18.435 0.835853 19.1516C3.22094 22.0711 6.84951 23.9349 10.9134 23.9349C18.0966 23.9349 23.9198 18.1118 23.9198 10.9285C23.9198 6.86465 22.056 3.23608 19.1365 0.850991C18.4198 0.265487 17.4992 0.0151377 16.5738 0.0151377L5.20513 0.0151367C4.57361 0.0151367 3.96771 0.264881 3.51961 0.709889L0.706458 3.49951Z" fill="#1570EF"/>
<path d="M47.1332 3.49952C47.5854 3.94857 47.8397 4.55948 47.8397 5.19674L47.8397 16.5889C47.8397 17.5143 47.5894 18.435 47.0038 19.1516C44.6188 22.0711 40.9902 23.9349 36.9263 23.9349C29.7431 23.9349 23.9199 18.1118 23.9199 10.9285C23.9199 6.86465 25.7837 3.23607 28.7032 0.85099C29.4199 0.265486 30.3405 0.0151366 31.2659 0.0151367L42.6346 0.0151377C43.2661 0.0151377 43.872 0.264882 44.3201 0.70989L47.1332 3.49952Z" fill="#9AD3FF"/>
<path d="M18.9551 26.7227C19.8869 27.457 20.717 28.3139 21.418 29.2725L2.7168 46.3633L1.78516 45.4385L18.9551 26.7227Z" fill="url(#paint0_radial_8488_2774)"/>
<path d="M43.2002 0.0854492C43.6205 0.187609 44.0094 0.400674 44.3213 0.710449L47.1348 3.49951C47.4121 3.77496 47.6131 4.11205 47.7285 4.47803L29.3984 21.5356C28.2294 20.7043 27.2043 19.684 26.3662 18.52L43.2002 0.0854492Z" fill="white"/>
<path d="M18.9092 26.686C19.7995 27.3811 20.5973 28.1882 21.2803 29.0884L2.7168 46.3628L1.78516 45.439L18.9092 26.686Z" fill="white"/>
<path d="M42.6348 0.0151367C43.2661 0.0152459 43.8723 0.264562 44.3203 0.709473L47.1328 3.49951C47.585 3.94856 47.8398 4.55952 47.8398 5.19678V12.4028L33.2266 23.3999C29.0403 22.16 25.735 18.8709 24.4736 14.6938L35.3076 0.0151367H42.6348Z" fill="url(#paint1_linear_8488_2774)"/>
<path d="M16.667 25.2739C19.2845 26.567 21.4039 28.7149 22.6611 31.353L2.7168 46.3638L1.78516 45.439L16.667 25.2739Z" fill="url(#paint2_linear_8488_2774)"/>
<defs>
<radialGradient id="paint0_radial_8488_2774" cx="0" cy="0" r="1" gradientUnits="userSpaceOnUse" gradientTransform="translate(-2.35494 51.0004) rotate(-45.9023) scale(30.4045 30.2976)">
<stop stop-color="white"/>
<stop offset="1" stop-color="white" stop-opacity="0"/>
</radialGradient>
<linearGradient id="paint1_linear_8488_2774" x1="1.7482" y1="47.8519" x2="43.6057" y2="7.48652" gradientUnits="userSpaceOnUse">
<stop stop-color="white"/>
<stop offset="1" stop-color="white" stop-opacity="0"/>
</linearGradient>
<linearGradient id="paint2_linear_8488_2774" x1="1.74895" y1="47.855" x2="43.6092" y2="7.49097" gradientUnits="userSpaceOnUse">
<stop stop-color="white"/>
<stop offset="1" stop-color="white" stop-opacity="0"/>
</linearGradient>
</defs>
</svg>
