<svg width="130" height="48" viewBox="0 0 130 48" fill="none" xmlns="http://www.w3.org/2000/svg">
<path d="M95.414 19.5024V16.1457H100.38C101.637 16.1457 102.738 15.8868 103.681 15.3689C104.624 14.8326 105.355 14.0836 105.873 13.1218C106.409 12.1601 106.677 11.0227 106.677 9.70961C106.677 8.43349 106.409 7.32382 105.873 6.3806C105.336 5.41888 104.596 4.6791 103.653 4.16126C102.71 3.62492 101.619 3.35675 100.38 3.35675H95.3307V0H100.435C101.878 0 103.209 0.240428 104.43 0.721284C105.669 1.20214 106.742 1.88644 107.648 2.77417C108.573 3.64341 109.285 4.66986 109.784 5.8535C110.302 7.03715 110.561 8.33177 110.561 9.73735C110.561 11.1429 110.302 12.4468 109.784 13.6489C109.285 14.8326 108.582 15.8683 107.676 16.756C106.77 17.6252 105.697 18.3003 104.458 18.7811C103.237 19.262 101.915 19.5024 100.491 19.5024H95.414ZM92.834 19.5024V0H96.6069V19.5024H92.834Z" fill="white"/>
<path d="M85.1164 19.5024V0H88.8338V19.5024H85.1164ZM81.2881 3.27352V0H88.5564V3.27352H81.2881Z" fill="white"/>
<path d="M67.8714 19.5024V0.416125H71.672V19.5024H67.8714ZM61.6572 3.35675V0H77.8861V3.35675H61.6572Z" fill="white"/>
<path d="M123.077 47.7229V28.9043H126.121V47.7229H123.077ZM119.895 37.2066V34.4392H129.304V37.2066H119.895Z" fill="white"/>
<path d="M112.213 47.9999C111.087 47.9999 110.082 47.7508 109.196 47.2527C108.329 46.7546 107.646 46.0719 107.148 45.2048C106.669 44.3192 106.429 43.3045 106.429 42.1606V34.4395H109.473V42.0222C109.473 42.668 109.574 43.2215 109.777 43.6827C109.999 44.1255 110.312 44.4668 110.718 44.7066C111.143 44.9465 111.641 45.0664 112.213 45.0664C113.098 45.0664 113.772 44.8081 114.233 44.2915C114.713 43.7565 114.952 43.0001 114.952 42.0222V34.4395H117.997V42.1606C117.997 43.3229 117.748 44.3469 117.249 45.2325C116.77 46.0996 116.096 46.7822 115.229 47.2804C114.362 47.7601 113.357 47.9999 112.213 47.9999Z" fill="white"/>
<path d="M97.2549 47.9993C95.9634 47.9993 94.7918 47.6949 93.7402 47.086C92.6886 46.4588 91.8491 45.6193 91.2218 44.5677C90.613 43.516 90.3086 42.3445 90.3086 41.053C90.3086 39.7616 90.613 38.5992 91.2218 37.5661C91.8491 36.5329 92.6886 35.7119 93.7402 35.103C94.7918 34.4758 95.9634 34.1621 97.2549 34.1621C98.5648 34.1621 99.7456 34.4665 100.797 35.0754C101.849 35.6842 102.679 36.5144 103.288 37.5661C103.915 38.5992 104.229 39.7616 104.229 41.053C104.229 42.3445 103.915 43.516 103.288 44.5677C102.679 45.6193 101.849 46.4588 100.797 47.086C99.7456 47.6949 98.5648 47.9993 97.2549 47.9993ZM97.2549 45.0658C98.0113 45.0658 98.6755 44.8998 99.2474 44.5677C99.8378 44.2171 100.29 43.7374 100.603 43.1286C100.936 42.5198 101.102 41.8279 101.102 41.053C101.102 40.2781 100.936 39.5955 100.603 39.0051C100.271 38.4147 99.8194 37.9535 99.2474 37.6214C98.6755 37.2709 98.0113 37.0956 97.2549 37.0956C96.5169 37.0956 95.8527 37.2709 95.2623 37.6214C94.6904 37.9535 94.2384 38.4147 93.9063 39.0051C93.5926 39.5955 93.4358 40.2781 93.4358 41.053C93.4358 41.8279 93.5926 42.5198 93.9063 43.1286C94.2384 43.7374 94.6904 44.2171 95.2623 44.5677C95.8527 44.8998 96.5169 45.0658 97.2549 45.0658Z" fill="white"/>
<path d="M84.0667 47.9993C82.7568 47.9993 81.5668 47.6949 80.4967 47.086C79.4451 46.4772 78.6149 45.647 78.006 44.5953C77.3972 43.5437 77.0928 42.3722 77.0928 41.0807C77.0928 39.7708 77.3972 38.5992 78.006 37.5661C78.6149 36.5144 79.4451 35.6842 80.4967 35.0754C81.5668 34.4665 82.7568 34.1621 84.0667 34.1621C85.0999 34.1621 86.0593 34.3651 86.9449 34.7709C87.8489 35.1584 88.6145 35.7211 89.2418 36.4591L87.2493 38.4793C86.8618 38.0181 86.3914 37.6768 85.8379 37.4554C85.3028 37.2155 84.7125 37.0956 84.0667 37.0956C83.3103 37.0956 82.6369 37.2709 82.0465 37.6214C81.4745 37.9535 81.0225 38.4147 80.6904 39.0051C80.3768 39.5955 80.22 40.2874 80.22 41.0807C80.22 41.8556 80.3768 42.5474 80.6904 43.1563C81.0225 43.7467 81.4745 44.2171 82.0465 44.5677C82.6369 44.8998 83.3103 45.0658 84.0667 45.0658C84.7125 45.0658 85.3028 44.9551 85.8379 44.7337C86.3914 44.4939 86.8618 44.1433 87.2493 43.6821L89.2418 45.7023C88.6145 46.4403 87.8489 47.0122 86.9449 47.4181C86.0593 47.8056 85.0999 47.9993 84.0667 47.9993Z" fill="white"/>
<path d="M68.5468 47.9998C67.0155 47.9998 65.7148 47.723 64.6447 47.1695C63.5747 46.616 62.6153 45.8043 61.7666 44.7342L63.9252 42.5756C64.4602 43.3505 65.0968 43.9593 65.8347 44.4021C66.5727 44.8264 67.5136 45.0386 68.6575 45.0386C69.7276 45.0386 70.5763 44.8172 71.2036 44.3744C71.8493 43.9316 72.1722 43.3228 72.1722 42.5479C72.1722 41.9022 72.0061 41.3764 71.674 40.9705C71.3419 40.5646 70.8991 40.2325 70.3457 39.9742C69.8106 39.6975 69.211 39.4576 68.5468 39.2547C67.9011 39.0333 67.2461 38.7934 66.5819 38.5351C65.9362 38.2584 65.3366 37.9171 64.7831 37.5112C64.2481 37.1053 63.8145 36.5795 63.4824 35.9337C63.1503 35.288 62.9843 34.467 62.9843 33.4707C62.9843 32.3268 63.261 31.3582 63.8145 30.5649C64.3864 29.7531 65.1521 29.1351 66.1115 28.7107C67.0709 28.2864 68.1409 28.0742 69.3217 28.0742C70.5947 28.0742 71.7294 28.3233 72.7257 28.8214C73.7404 29.3196 74.5614 29.9561 75.1887 30.731L73.0301 32.8896C72.4766 32.2623 71.8954 31.801 71.2866 31.5058C70.6962 31.1922 70.0136 31.0354 69.2387 31.0354C68.2793 31.0354 67.5229 31.2291 66.9694 31.6165C66.4343 32.004 66.1668 32.5482 66.1668 33.2493C66.1668 33.8397 66.3329 34.3194 66.665 34.6884C66.9971 35.0389 67.4306 35.3434 67.9657 35.6016C68.5191 35.8415 69.1188 36.0721 69.7645 36.2935C70.4287 36.5149 71.0836 36.764 71.7294 37.0407C72.3936 37.3175 72.9932 37.6772 73.5282 38.12C74.0817 38.5444 74.5245 39.0978 74.8566 39.7805C75.1887 40.4631 75.3547 41.321 75.3547 42.3542C75.3547 44.0885 74.7367 45.4629 73.5005 46.4777C72.2829 47.4924 70.6316 47.9998 68.5468 47.9998Z" fill="white"/>
<path d="M47.8286 44.37C48.2807 43.9209 48.535 43.31 48.535 42.6728V31.2806C48.535 30.3551 48.2847 29.4345 47.6992 28.7179C45.3141 25.7984 41.6855 23.9346 37.6216 23.9346C30.4384 23.9346 24.6152 29.7577 24.6152 36.941C24.6152 41.0048 26.4791 44.6334 29.3985 47.0185C30.1152 47.604 31.0358 47.8544 31.9613 47.8544H43.3299C43.9614 47.8544 44.5673 47.6046 45.0154 47.1596L47.8286 44.37Z" fill="white"/>
<path d="M1.40177 44.37C0.949601 43.9209 0.695312 43.31 0.695312 42.6728V31.2806C0.695312 30.3551 0.945661 29.4345 1.53117 28.7178C3.91625 25.7984 7.54482 23.9346 11.6087 23.9346C18.7919 23.9346 24.6151 29.7577 24.6151 36.941C24.6151 41.0048 22.7513 44.6334 19.8318 47.0185C19.1151 47.604 18.1945 47.8544 17.2691 47.8544H5.90044C5.26892 47.8544 4.66302 47.6046 4.21492 47.1596L1.40177 44.37Z" fill="#FECC01"/>
<path d="M1.40177 3.49903C0.949602 3.94808 0.695313 4.55899 0.695313 5.19625L0.695312 16.5884C0.695312 17.5139 0.945661 18.4345 1.53117 19.1512C3.91625 22.0706 7.54482 23.9344 11.6087 23.9344C18.7919 23.9344 24.6151 18.1113 24.6151 10.9281C24.6151 6.86416 22.7513 3.23559 19.8318 0.850503C19.1151 0.264999 18.1945 0.0146495 17.2691 0.0146494L5.90044 0.0146484C5.26892 0.0146484 4.66302 0.264393 4.21492 0.709401L1.40177 3.49903Z" fill="white"/>
<path d="M47.8286 3.49903C48.2807 3.94808 48.535 4.55899 48.535 5.19625L48.535 16.5884C48.535 17.5139 48.2847 18.4345 47.6992 19.1512C45.3141 22.0706 41.6855 23.9344 37.6216 23.9344C30.4384 23.9344 24.6152 18.1113 24.6152 10.928C24.6152 6.86416 26.4791 3.23559 29.3985 0.850501C30.1152 0.264998 31.0358 0.0146484 31.9613 0.0146484L43.3299 0.0146494C43.9614 0.0146494 44.5673 0.264394 45.0154 0.709402L47.8286 3.49903Z" fill="#9AD3FF"/>
<path fill-rule="evenodd" clip-rule="evenodd" d="M3.41172 46.3632L2.48047 45.4398L19.6537 26.7207C20.5853 27.4549 21.414 28.3138 22.1148 29.2721L3.41172 46.3632Z" fill="url(#paint0_radial_8525_673)"/>
<path fill-rule="evenodd" clip-rule="evenodd" d="M48.4255 4.47674L30.0937 21.5351C28.925 20.704 27.8995 19.6845 27.0615 18.5209L43.8978 0.0830078C44.3175 0.185324 44.7053 0.400327 45.0168 0.709711L47.8299 3.49934C48.1072 3.77469 48.3101 4.11091 48.4255 4.47674Z" fill="white"/>
<path fill-rule="evenodd" clip-rule="evenodd" d="M3.41172 46.3628L2.48047 45.4394L19.607 26.6836C20.4971 27.3786 21.2944 28.187 21.9772 29.087L3.41172 46.3628Z" fill="white"/>
<path fill-rule="evenodd" clip-rule="evenodd" d="M48.5348 12.4027L33.9215 23.4006C29.7358 22.1609 26.4307 18.8715 25.1689 14.6953L36.0032 0.0146484H43.3297C43.9612 0.0146484 44.5671 0.264394 45.0152 0.709402L47.8283 3.49903C48.2805 3.94808 48.5348 4.55899 48.5348 5.19625L48.5348 12.4027Z" fill="url(#paint1_linear_8525_673)"/>
<path fill-rule="evenodd" clip-rule="evenodd" d="M3.41173 46.363L2.48047 45.4395L17.3629 25.2734C19.9801 26.5666 22.0996 28.7144 23.3568 31.3522L3.41173 46.363Z" fill="url(#paint2_linear_8525_673)"/>
<defs>
<radialGradient id="paint0_radial_8525_673" cx="0" cy="0" r="1" gradientUnits="userSpaceOnUse" gradientTransform="translate(-1.65995 51.0008) rotate(-45.9029) scale(30.4072 30.3003)">
<stop stop-color="white"/>
<stop offset="1" stop-color="white" stop-opacity="0"/>
</radialGradient>
<linearGradient id="paint1_linear_8525_673" x1="2.44388" y1="47.854" x2="44.3035" y2="7.48936" gradientUnits="userSpaceOnUse">
<stop stop-color="white"/>
<stop offset="1" stop-color="white" stop-opacity="0"/>
</linearGradient>
<linearGradient id="paint2_linear_8525_673" x1="2.44426" y1="47.8542" x2="44.3039" y2="7.48954" gradientUnits="userSpaceOnUse">
<stop stop-color="white"/>
<stop offset="1" stop-color="white" stop-opacity="0"/>
</linearGradient>
</defs>
</svg>
