<svg width="40" height="40" viewBox="0 0 40 40" fill="none" xmlns="http://www.w3.org/2000/svg">
<path d="M5 36.6668H20M18.3333 10.4202C19.3987 10.146 20.5157 10.0002 21.6667 10.0002C29.0305 10.0002 35 15.9697 35 23.3335C35 28.9291 31.5531 33.7197 26.6667 35.6976M9.16667 21.6668H15.8333C16.6078 21.6668 16.995 21.6668 17.317 21.7309C18.6393 21.9939 19.6729 23.0276 19.936 24.3499C20 24.6719 20 25.0591 20 25.8335C20 26.6079 20 26.9951 19.936 27.3171C19.6729 28.6394 18.6393 29.6731 17.317 29.9361C16.995 30.0002 16.6078 30.0002 15.8333 30.0002H9.16667C8.39224 30.0002 8.00503 30.0002 7.68303 29.9361C6.36073 29.6731 5.32707 28.6394 5.06405 27.3171C5 26.9951 5 26.6079 5 25.8335C5 25.0591 5 24.6719 5.06405 24.3499C5.32707 23.0276 6.36073 21.9939 7.68303 21.7309C8.00503 21.6668 8.39224 21.6668 9.16667 21.6668ZM6.66667 9.16683V21.6668H18.3333V9.16683C18.3333 5.94517 15.7217 3.3335 12.5 3.3335C9.27834 3.3335 6.66667 5.94517 6.66667 9.16683Z" stroke="#101828" stroke-width="2" stroke-linecap="round" stroke-linejoin="round"/>
</svg>
