<svg width="18" height="18" viewBox="0 0 18 18" fill="none" xmlns="http://www.w3.org/2000/svg">
<path fill-rule="evenodd" clip-rule="evenodd" d="M11.683 2.01246L17.2559 13.1584C18.2533 15.1531 16.8028 17.5 14.5726 17.5H3.42672C1.19658 17.5 -0.253911 15.1531 0.743441 13.1584L6.31639 2.01246C7.42196 -0.198685 10.5774 -0.198682 11.683 2.01246ZM10.3413 2.68328C9.78853 1.57771 8.21082 1.57771 7.65803 2.68328L2.08508 13.8292C1.58641 14.8265 2.31165 16 3.42672 16H14.5726C15.6877 16 16.4129 14.8265 15.9143 13.8292L10.3413 2.68328Z" fill="#4582C9"/>
<path d="M10.1111 5.11111C10.1111 5.72476 9.61359 6.22222 8.99994 6.22222C8.38629 6.22222 7.88883 5.72476 7.88883 5.11111C7.88883 4.49746 8.38629 4 8.99994 4C9.61359 4 10.1111 4.49746 10.1111 5.11111Z" fill="#4582C9"/>
<path fill-rule="evenodd" clip-rule="evenodd" d="M8.99967 7.57556C9.41388 7.57556 9.74967 7.91135 9.74967 8.32556V14.5556C9.74967 14.9699 9.41388 15.3056 8.99967 15.3056C8.58546 15.3056 8.24967 14.9699 8.24967 14.5556V8.32556C8.24967 7.91135 8.58546 7.57556 8.99967 7.57556Z" fill="#4582C9"/>
</svg>
