<svg width="100" height="96" viewBox="0 0 100 96" fill="none" xmlns="http://www.w3.org/2000/svg">
<path d="M52.5 80H22C19.7909 80 18 78.2091 18 76V21.5C18 19.2909 19.7909 17.5 22 17.5H31.5M31.5 17.5V19C31.5 20.1046 32.3954 21 33.5 21H52.5C53.6046 21 54.5 20.1046 54.5 19V17.5M31.5 17.5V16C31.5 14.8954 32.3954 14 33.5 14H52.5C53.6046 14 54.5 14.8954 54.5 16V17.5M54.5 17.5H63C65.2091 17.5 67 19.2909 67 21.5V51M29.5 33H57M29 48H57M29 40.5H57" stroke="#4582C9" stroke-width="2" stroke-linecap="round" stroke-linejoin="round"/>
<circle cx="67.5" cy="68.5" r="14" stroke="#4582C9" stroke-width="2" stroke-linecap="round" stroke-linejoin="round"/>
<path d="M61.5 68L65.5 72.5L74 64.5" stroke="#4582C9" stroke-width="2" stroke-linecap="round" stroke-linejoin="round"/>
</svg>
